<?xml version="1.0" encoding="UTF-8" standalone="no"?>
<svg
   version="1.1"
   id="Layer_1"
   x="0px"
   y="0px"
   viewBox="0 0 1000 1000"
   style="enable-background:new 0 0 1000 1000;"
   xml:space="preserve"
   width="1000px"
   height="1000px"
   sodipodi:docname="gummy-macintosh-yellow.svg"
   inkscape:version="1.4 (e7c3feb100, 2024-10-09)"
   xmlns:inkscape="http://www.inkscape.org/namespaces/inkscape"
   xmlns:sodipodi="http://sodipodi.sourceforge.net/DTD/sodipodi-0.dtd"
   xmlns="http://www.w3.org/2000/svg"
   xmlns:svg="http://www.w3.org/2000/svg"><defs
   id="defs34" /><sodipodi:namedview
   id="namedview34"
   pagecolor="#ffffff"
   bordercolor="#000000"
   borderopacity="0.25"
   inkscape:showpageshadow="2"
   inkscape:pageopacity="0.0"
   inkscape:pagecheckerboard="0"
   inkscape:deskcolor="#d1d1d1"
   inkscape:zoom="0.59"
   inkscape:cx="500"
   inkscape:cy="484.74576"
   inkscape:window-width="1607"
   inkscape:window-height="829"
   inkscape:window-x="0"
   inkscape:window-y="0"
   inkscape:window-maximized="1"
   inkscape:current-layer="Layer_1_1_" />

<g
   id="g34"
   transform="matrix(1.6703674,0,0,1.6703674,-361.97963,-308.37121)">
	<g
   id="Layer_1_1_">
		<path
   d="m 285.7,654 h 467.4 c 8.3,0 15,6.7 15,15 v 0 c 0,8.3 -6.7,15 -15,15 H 285.7 c -8.3,0 -15,-6.7 -15,-15 v 0 c 0,-8.3 6.7,-15 15,-15 z"
   style="opacity:0.62;fill:#a0892c;enable-background:new"
   id="path1" />
		<path
   d="m 375.7,281.9 h 236 c 9.9,0 18,8.1 18,18 v 304.8 c 0,9.9 -8.1,18 -18,18 h -236 c -9.9,0 -18,-8.1 -18,-18 V 299.9 c 0,-10 8.1,-18 18,-18 z"
   style="fill:#f7e4cb"
   id="path2" />
		<path
   d="m 375.7,281.9 h 236 c 9.9,0 18,8.1 18,18 v 304.8 c 0,9.9 -8.1,18 -18,18 h -236 c -9.9,0 -18,-8.1 -18,-18 V 299.9 c 0,-10 8.1,-18 18,-18 z"
   style="fill:#ffe680"
   id="path3" />
		<path
   d="m 617.7,309.9 v 280 c 0,5.7 -4.6,10.2 -10.2,10.2 H 380 c -5.7,0 -10.2,-4.6 -10.2,-10.2 v -280 c 0,-5.7 4.6,-10.2 10.2,-10.2 h 227.5 c 5.6,0 10.2,4.6 10.2,10.2 z"
   style="fill:#ffdd55"
   id="path4" />
		<g
   id="g5">
			<path
   d="m 611.7,625.7 h -236 c -11.6,0 -21,-9.4 -21,-21 V 299.9 c 0,-11.6 9.4,-21 21,-21 h 236 c 11.6,0 21,9.4 21,21 v 304.8 c 0,11.6 -9.4,21 -21,21 z m -236,-340.8 c -8.3,0 -15,6.7 -15,15 v 304.8 c 0,8.3 6.7,15 15,15 h 236 c 8.3,0 15,-6.7 15,-15 V 299.9 c 0,-8.3 -6.7,-15 -15,-15 z"
   style="fill:#353535"
   id="path5" />
		</g>
		<path
   d="M 602.7,326.4 V 489 c 0,5.4 -4.3,9.7 -9.7,9.7 H 394.4 c -5.4,0 -9.7,-4.3 -9.7,-9.7 V 326.4 c 0,-5.4 4.3,-9.7 9.7,-9.7 H 593 c 5.4,0 9.7,4.3 9.7,9.7 z"
   style="fill:#ffd42a"
   id="path6" />
		<path
   d="m 592.3,344.4 v 126.4 c 0,9.5 -7.7,17.2 -17.2,17.2 H 412.4 c -9.5,0 -17.2,-7.7 -17.2,-17.2 V 344.4 c 0,-9.5 7.7,-17.2 17.2,-17.2 H 575 c 9.6,0 17.3,7.7 17.3,17.2 z"
   style="fill:#353535"
   id="path7" />
		<path
   d="m 575,327.2 h -20.2 c 3.6,7.6 5.5,15.8 5.5,24.2 v 0 c 0,57.8 -46.9,104.7 -104.7,104.7 v 0 h -36.2 c -8.4,0 -16.6,-1.9 -24.2,-5.5 v 20.2 c 0,9.5 7.7,17.2 17.2,17.2 0,0 0,0 0,0 H 575 c 9.5,0 17.2,-7.7 17.2,-17.2 0,0 0,0 0,0 V 344.4 c 0.1,-9.5 -7.7,-17.2 -17.2,-17.2 z"
   style="opacity:0.3;fill:#282828;enable-background:new"
   id="path8" />
		<path
   d="m 564.2,539.7 v -3.1 h -68.8 v -12 h 68.8 v -3.1 c 0,-1 0.8,-1.9 1.9,-1.9 h 36.2 c 1,0 1.9,0.8 1.9,1.9 0,0 0,0 0,0 v 18.2 c 0,1 -0.8,1.9 -1.9,1.9 v 0 h -36.2 c -1.1,0 -1.9,-0.8 -1.9,-1.9 z"
   style="fill:#ffeeaa"
   id="path9" />
		<rect
   x="594.70001"
   y="527.59998"
   width="4.3000002"
   height="6"
   style="fill:#353535"
   id="rect9" />
		<g
   id="g10">
			<path
   d="m 412.8,576.9 h -19.4 c -1.6,0 -2.9,-1.3 -2.9,-2.9 v -19.4 c 0,-1.6 1.3,-2.9 2.9,-2.9 h 19.4 c 1.6,0 2.9,1.3 2.9,2.9 V 574 c 0,1.6 -1.3,2.9 -2.9,2.9 z m -19.4,-23.2 c -0.5,0 -0.9,0.4 -0.9,0.9 V 574 c 0,0.5 0.4,0.9 0.9,0.9 h 19.4 c 0.5,0 0.9,-0.4 0.9,-0.9 v -19.4 c 0,-0.5 -0.4,-0.9 -0.9,-0.9 z"
   style="fill:#353535"
   id="path10" />
		</g>
		<path
   d="m 658.4,669 c 0,-9.9 10.5,-18 23.5,-18 13,0 23.5,8.1 23.5,18 z"
   style="fill:#ffe680"
   id="path11" />
		<g
   id="g12">
			<path
   d="m 705.4,672 h -47 c -1.7,0 -3,-1.3 -3,-3 0,-11.6 11.9,-21 26.5,-21 14.6,0 26.5,9.4 26.5,21 0,1.6 -1.4,3 -3,3 z m -43.6,-6 H 702 c -1.9,-6.8 -10.2,-12 -20.1,-12 -9.9,0 -18.2,5.2 -20.1,12 z"
   style="fill:#353535"
   id="path12" />
		</g>
		<rect
   x="374.70001"
   y="623.90002"
   width="238"
   height="24"
   style="fill:#ffdd55"
   id="rect12" />
		<rect
   x="374.70001"
   y="623.90002"
   width="238"
   height="9.8999996"
   style="fill:#d4aa00"
   id="rect13" />
		<g
   id="g13">
			<path
   d="m 612.7,650.9 h -238 c -1.7,0 -3,-1.3 -3,-3 v -24 c 0,-1.7 1.3,-3 3,-3 h 238 c 1.7,0 3,1.3 3,3 v 24 c 0,1.7 -1.3,3 -3,3 z m -235,-6 h 232 v -18 h -232 z"
   style="fill:#353535"
   id="path13" />
		</g>
		<rect
   x="417.70001"
   y="639"
   width="152"
   height="12"
   style="fill:#ffdd55"
   id="rect14" />
		<rect
   x="607.70001"
   y="639"
   width="20"
   height="12"
   style="fill:#ffdd55"
   id="rect15" />
		<rect
   x="578.70001"
   y="639"
   width="20"
   height="12"
   style="fill:#ffdd55"
   id="rect16" />
		<rect
   x="388.70001"
   y="639"
   width="20"
   height="12"
   style="fill:#ffd42a"
   id="rect17" />
		<rect
   x="359.70001"
   y="639"
   width="20"
   height="12"
   style="fill:#ffdd55"
   id="rect18" />
		<rect
   x="339.5"
   y="651"
   width="308.29999"
   height="18"
   style="fill:#ffdd55"
   id="rect19" />
		<g
   id="g19">
			<path
   d="M 647.9,672 H 339.5 c -1.7,0 -3,-1.3 -3,-3 v -18 c 0,-1.7 1.3,-3 3,-3 h 308.3 c 1.7,0 3,1.3 3,3 v 18 c 0.1,1.6 -1.3,3 -2.9,3 z M 342.5,666 H 644.8 V 654 H 342.5 Z"
   style="fill:#353535"
   id="path19" />
		</g>
		<g
   id="g20">
			<path
   d="m 569.7,654 h -152 c -1.7,0 -3,-1.3 -3,-3 v -12 c 0,-1.7 1.3,-3 3,-3 h 152 c 1.7,0 3,1.3 3,3 v 12 c 0,1.6 -1.3,3 -3,3 z m -149,-6 h 146 v -6 h -146 z"
   style="fill:#353535"
   id="path20" />
		</g>
		<g
   id="g21">
			<path
   d="m 627.7,654 h -20 c -1.7,0 -3,-1.3 -3,-3 v -12 c 0,-1.7 1.3,-3 3,-3 h 20 c 1.7,0 3,1.3 3,3 v 12 c 0,1.6 -1.3,3 -3,3 z m -17,-6 h 14 v -6 h -14 z"
   style="fill:#353535"
   id="path21" />
		</g>
		<g
   id="g22">
			<path
   d="m 598.7,654 h -20 c -1.7,0 -3,-1.3 -3,-3 v -12 c 0,-1.7 1.3,-3 3,-3 h 20 c 1.7,0 3,1.3 3,3 v 12 c 0,1.6 -1.3,3 -3,3 z m -17,-6 h 14 v -6 h -14 z"
   style="fill:#353535"
   id="path22" />
		</g>
		<g
   id="g23">
			<path
   d="m 408.7,654 h -20 c -1.7,0 -3,-1.3 -3,-3 v -12 c 0,-1.7 1.3,-3 3,-3 h 20 c 1.7,0 3,1.3 3,3 v 12 c 0,1.6 -1.3,3 -3,3 z m -17,-6 h 14 v -6 h -14 z"
   style="fill:#353535"
   id="path23" />
		</g>
		<g
   id="g24">
			<path
   d="m 379.7,654 h -20 c -1.7,0 -3,-1.3 -3,-3 v -12 c 0,-1.7 1.3,-3 3,-3 h 20 c 1.7,0 3,1.3 3,3 v 12 c 0,1.6 -1.3,3 -3,3 z m -17,-6 h 14 v -6 h -14 z"
   style="fill:#353535"
   id="path24" />
		</g>
		<path
   d="m 405.3,562.5 c -0.9,-0.8 -1.5,-1.9 -1.8,-3.1 h -6.3 c -0.8,0.9 -1.3,2 -1.6,3.1 z"
   style="fill:#cf9742"
   id="path25" />
		<path
   d="m 403.3,558.1 c 0,-0.5 0.1,-1 0.2,-1.5 -0.1,0 -0.3,0 -0.4,0 -2.3,0 -4.5,1 -5.9,2.8 h 6.3 c -0.1,-0.5 -0.2,-0.9 -0.2,-1.3 z"
   style="fill:#6e9546"
   id="path26" />
		<path
   d="M 397.2,569.3 H 409 c 0.8,-0.9 1.3,-2 1.6,-3.1 h -15 c 0.3,1.1 0.9,2.2 1.6,3.1 z"
   style="fill:#7c4d83"
   id="path27" />
		<path
   d="m 403.1,572 c 2.3,0 4.4,-1 5.9,-2.7 h -11.8 c 1.5,1.7 3.7,2.7 5.9,2.7 z"
   style="fill:#4d8db9"
   id="path28" />
		<path
   d="m 395.4,564.3 c 0,0.6 0.1,1.2 0.2,1.9 h 15 c 0.2,-0.6 0.2,-1.2 0.2,-1.9 0,-0.1 0,-0.3 0,-0.4 -2,0.5 -4.1,0 -5.6,-1.4 h -9.6 c -0.1,0.6 -0.2,1.2 -0.2,1.8 z"
   style="fill:#cb6757"
   id="path29" />
		<g
   id="g30">
			<path
   d="m 439.3,352.2 h -16.1 c -2.2,0 -4,-1.8 -4,-4 0,-2.2 1.8,-4 4,-4 h 16.1 c 2.2,0 4,1.8 4,4 0,2.2 -1.8,4 -4,4 z"
   style="fill:#ffffff"
   id="path30" />
		</g>
		<g
   id="g31">
			<path
   d="M 513.4,352.2 H 456 c -2.2,0 -4,-1.8 -4,-4 0,-2.2 1.8,-4 4,-4 h 57.4 c 2.2,0 4,1.8 4,4 0,2.2 -1.8,4 -4,4 z"
   style="fill:#ffffff"
   id="path31" />
		</g>
		<path
   d="m 569.5,522.9 h 27.6 c 1,0 1.9,0.8 1.9,1.9 v 0 4.8 0 h -31.4 v 0 -4.8 c 0,-1 0.8,-1.9 1.9,-1.9 z"
   style="fill:#353535"
   id="path32" />
		<path
   d="M 567.6,530.6 H 599 v 0 5.8 c 0,1 -0.8,1.9 -1.9,1.9 v 0 h -27.6 c -1,0 -1.9,-0.8 -1.9,-1.9 v 0 z"
   style="fill:#353535"
   id="path33" />
		<path
   d="m 500.5,527.6 h 94.6 c 0.5,0 1,0.4 1,1 v 4.1 c 0,0.5 -0.4,1 -1,1 h -94.6 c -0.5,0 -1,-0.4 -1,-1 v -4.1 c 0,-0.6 0.5,-1 1,-1 z"
   style="fill:#282828"
   id="path34" />
	</g>
</g>
</svg>
